<?xml version="1.0" encoding="utf-8"?>
<!-- Generator: Adobe Illustrator 23.0.1, SVG Export Plug-In . SVG Version: 6.00 Build 0)  -->
<svg version="1.1" id="Layer_1" xmlns="http://www.w3.org/2000/svg" xmlns:xlink="http://www.w3.org/1999/xlink" x="0px" y="0px"
	 viewBox="0 0 500 500" style="enable-background:new 0 0 500 500;" xml:space="preserve">
<g>
	<path d="M359.11,304.36c-2.38-1.32-4.92-2.62-7.78-3.7c-19.92-7.46-45.04-17.61-67.94-31.08c-8.16-4.8-40.51-24.95-53.66-32.02
		c-12.57-6.76-26.51-11.67-41.82-11.67c-44.58,0-80.73,36.14-80.73,80.73c0,22.1,8.67,42.04,23.55,56.92
		c14.19,14.19,35.95,20.72,53.17,20.72c41.99,0,76.31-39.24,72.67-84.25l-5.19-6.21c-15.23,19.66-35.24,29.26-57.98,29.57
		c-12.96,0-42.55-8.1-42.55-39.15c0-14.8,8.19-27.69,20.29-34.38c0.09-0.06,0.18-0.1,0.27-0.15c5.47-3.01,11.74-4.74,18.44-4.79h1
		c22.23,0,37.25,10.38,52.35,25.46c8.08,8.07,15.52,17.48,22.33,27.49c6.37,9.38,26.63,42.96,33.07,53.86
		c7,11.84,15.99,25.85,34.88,28.52c0.89,0.13,1.71,0.22,2.53,0.29c23.25,1.94,43.97-15.59,44.78-38.9
		C381.36,325.45,372.23,311.64,359.11,304.36z"/>
	<path d="M278.68,257.77c0.22,0.15,0.45,0.3,0.68,0.43c43.74-14.84,81.86-47.1,96.46-91.82c2.14-6.55,4.25-13.52,4.57-20.43
		c1.32-27.91-24.49-49.91-51.55-42.93c-16.78,4.33-26.28,18.85-27.96,35.53c-1.17,11.67-0.3,23.54-1.45,35.27
		c-2.59,26.52-8.4,52.31-23.2,74.8l-3.51,5.34L278.68,257.77z"/>
</g>
</svg>
